<svg width="450" height="450" viewBox="0 0 450 450" fill="none" xmlns="http://www.w3.org/2000/svg">
<path d="M414.739 35.3932C392.91 13.4832 362.687 0 332.462 0C302.239 0 272.014 11.7977 248.508 35.3932L35.2612 249.438C13.4328 271.349 0 301.685 0 332.023C0 364.045 11.7538 392.697 35.2612 414.607C57.0892 436.517 87.3136 450 117.537 450C147.761 450 177.985 438.202 201.493 414.607L414.739 200.562C436.567 178.652 450 148.314 450 117.978C450 87.6399 436.567 57.3034 414.739 35.3932ZM177.985 392.697C162.873 407.865 141.045 417.977 119.217 417.977C97.3877 417.977 75.5596 409.551 60.448 392.697C45.3359 375.843 35.2612 355.618 35.2612 333.708C35.2612 311.798 43.6567 289.887 60.448 274.719L156.157 178.652L275.373 298.315L177.985 392.697Z" fill="black"/>
<path d="M242 114.824C242 73.5459 278.45 39.8885 323 39.8885C367.55 39.8885 404 73.5459 404 114.824C404 123.079 402.65 130.7 399.95 137.685C402.65 142.13 404 147.211 404 152.291C404 168.802 389.825 182.138 371.6 182.138C368.9 182.138 366.2 181.503 363.5 180.868V205H282.5V181.503C279.8 182.138 277.1 182.773 274.4 182.773C256.175 182.773 242 169.437 242 152.926C242 147.846 243.35 142.766 246.05 138.32C243.35 130.7 242 123.079 242 114.824Z" stroke="white" stroke-width="12" stroke-miterlimit="10" stroke-linejoin="round"/>
<path d="M309.495 173.824L322.995 161.123L336.495 173.824" stroke="white" stroke-width="12" stroke-miterlimit="10" stroke-linejoin="round"/>
<path d="M292.932 154.196C283.782 154.196 276.364 147.217 276.364 138.608C276.364 129.999 283.782 123.021 292.932 123.021C302.083 123.021 309.5 129.999 309.5 138.608C309.5 147.217 302.083 154.196 292.932 154.196Z" stroke="white" stroke-width="12" stroke-miterlimit="10" stroke-linejoin="round"/>
<path d="M353.687 154.196C344.198 154.196 336.505 147.217 336.505 138.608C336.505 129.999 344.198 123.021 353.687 123.021C363.176 123.021 370.869 129.999 370.869 138.608C370.869 147.217 363.176 154.196 353.687 154.196Z" stroke="white" stroke-width="12" stroke-miterlimit="10" stroke-linejoin="round"/>
</svg>
